<?xml version="1.0" encoding="UTF-8"?>
<svg width="1200" height="600" viewBox="0 0 1200 600" xmlns="http://www.w3.org/2000/svg" role="img" aria-label="Illustrazione uliveto">
  <defs>
    <linearGradient id="sky" x1="0" y1="0" x2="0" y2="1">
      <stop offset="0%" stop-color="#F5F0E6"/>
      <stop offset="100%" stop-color="#EDE7DC"/>
    </linearGradient>
    <linearGradient id="hill1" x1="0" y1="0" x2="0" y2="1">
      <stop offset="0%" stop-color="#8FB339"/>
      <stop offset="100%" stop-color="#6F8F2C"/>
    </linearGradient>
    <linearGradient id="hill2" x1="0" y1="0" x2="0" y2="1">
      <stop offset="0%" stop-color="#C7D9A5"/>
      <stop offset="100%" stop-color="#8FB339"/>
    </linearGradient>
  </defs>
  <rect width="1200" height="600" fill="url(#sky)"/>
  <path d="M0 420 C 200 360, 400 520, 600 440 C 800 360, 1000 520, 1200 420 L1200 600 L0 600 Z" fill="url(#hill2)" opacity="0.9"/>
  <path d="M0 460 C 200 400, 400 560, 600 480 C 800 400, 1000 560, 1200 460 L1200 600 L0 600 Z" fill="url(#hill1)"/>
  <!-- Olive trees -->
  <g fill="#556B2F" stroke="#455723" stroke-width="2">
    <g transform="translate(160,430)">
      <rect x="-6" y="0" width="12" height="40" fill="#8B6B3E"/>
      <circle cx="0" cy="-20" r="30"/>
      <circle cx="-24" cy="-10" r="18"/>
      <circle cx="24" cy="-6" r="20"/>
    </g>
    <g transform="translate(420,450) scale(0.9)">
      <rect x="-6" y="0" width="12" height="40" fill="#8B6B3E"/>
      <circle cx="0" cy="-20" r="28"/>
      <circle cx="-22" cy="-10" r="16"/>
      <circle cx="22" cy="-6" r="18"/>
    </g>
    <g transform="translate(760,440) scale(1.1)">
      <rect x="-6" y="0" width="12" height="40" fill="#8B6B3E"/>
      <circle cx="0" cy="-20" r="30"/>
      <circle cx="-24" cy="-10" r="18"/>
      <circle cx="24" cy="-6" r="20"/>
    </g>
    <g transform="translate(1020,460) scale(0.95)">
      <rect x="-6" y="0" width="12" height="40" fill="#8B6B3E"/>
      <circle cx="0" cy="-20" r="28"/>
      <circle cx="-22" cy="-10" r="16"/>
      <circle cx="22" cy="-6" r="18"/>
    </g>
  </g>
</svg>