<?xml version="1.0" encoding="UTF-8"?>
<svg width="800" height="800" viewBox="0 0 800 800" xmlns="http://www.w3.org/2000/svg" role="img" aria-label="Lattina 5L oliva">
  <defs>
    <linearGradient id="metal" x1="0" y1="0" x2="0" y2="1">
      <stop offset="0%" stop-color="#F8F8F8"/>
      <stop offset="50%" stop-color="#E6E6E6"/>
      <stop offset="100%" stop-color="#D9D9D9"/>
    </linearGradient>
    <linearGradient id="olive" x1="0" y1="0" x2="1" y2="1">
      <stop offset="0%" stop-color="#8FB339"/>
      <stop offset="100%" stop-color="#556B2F"/>
    </linearGradient>
    <filter id="shadow" x="-20%" y="-20%" width="140%" height="140%">
      <feDropShadow dx="0" dy="8" stdDeviation="12" flood-color="#000" flood-opacity="0.2"/>
    </filter>
  </defs>
  <rect x="220" y="80" width="360" height="640" rx="24" fill="url(#metal)" filter="url(#shadow)"/>
  <rect x="240" y="160" width="320" height="440" rx="16" fill="#F5F0E6" stroke="#E5DED3"/>
  <rect x="240" y="120" width="220" height="16" rx="8" fill="#C49A6C"/>
  <circle cx="580" cy="120" r="16" fill="#C49A6C"/>
  <!-- Label -->
  <g transform="translate(260,200)">
    <text x="0" y="0" font-family="'Playfair Display', serif" font-size="28" fill="#333333" font-weight="700">Riserva Rotundo</text>
    <text x="0" y="36" font-family="Inter, system-ui, -apple-system, sans-serif" font-size="14" fill="#333333">Olio Extravergine di Oliva Biologico</text>
    <g transform="translate(0,70)">
      <path d="M0 30c28-22 68-22 96 0" fill="none" stroke="url(#olive)" stroke-width="3" stroke-linecap="round"/>
      <ellipse cx="18" cy="22" rx="10" ry="14" fill="#556B2F"/>
      <ellipse cx="40" cy="14" rx="9" ry="12" fill="#8FB339"/>
      <ellipse cx="70" cy="22" rx="9.5" ry="12.5" fill="#C49A6C"/>
    </g>
    <text x="0" y="135" font-family="Inter, system-ui, -apple-system, sans-serif" font-size="13" fill="#333333">Lattina 5 Litri • Spremitura a freddo • Acidità &lt; 0,3%</text>
    <rect x="0" y="160" width="160" height="40" rx="8" fill="url(#olive)"/>
    <text x="80" y="186" text-anchor="middle" font-family="Inter, system-ui, -apple-system, sans-serif" font-size="16" fill="#fff">BIO • 5L</text>
  </g>
</svg>